<svg data-v-423bf9ae="" xmlns="http://www.w3.org/2000/svg" viewBox="0 0 NaN NaN" class="iconLeftSlogan"><!----><!----><!----><g data-v-423bf9ae="" id="c0b1a580-cb97-43af-8b49-d79c28f10b7f" fill="white" transform="matrix(5.830903811703725,0,0,5.830903811703725,-108.91271874098862,-2.448980234671076)"><path d="M1.75 6.86C1.75 4.87 2.72 4.06 3.82 4.06C4.68 4.06 5.36 4.55 5.63 5.71L6.85 5.43C6.45 3.91 5.39 3.01 3.82 3.01C1.81 3.01 0.49 4.45 0.49 6.86C0.49 9.27 1.81 10.71 3.82 10.71C5.39 10.71 6.45 9.83 6.85 8.30L5.63 8.02C5.36 9.17 4.68 9.66 3.82 9.66C2.72 9.66 1.75 8.85 1.75 6.86ZM9.51 10.50L9.51 6.54C9.51 4.94 10.29 4.07 11.44 4.07C12.53 4.07 12.94 4.83 12.94 6.09L12.94 10.50L14.20 10.50L14.20 6.03C14.20 4.30 13.71 3.01 11.69 3.01C10.68 3.01 9.91 3.37 9.38 4.27L9.38 3.22L8.25 3.22L8.25 10.50ZM20.64 0.42L20.64 3.99C20.22 3.40 19.59 3.01 18.72 3.01C16.70 3.01 15.60 4.59 15.60 6.86C15.60 9.13 16.70 10.71 18.72 10.71C19.68 10.71 20.36 10.21 20.78 9.51L20.78 10.50L21.90 10.50L21.90 0.42ZM20.79 6.86C20.79 8.71 19.75 9.66 18.79 9.66C17.68 9.66 16.86 8.71 16.86 6.86C16.86 5.01 17.68 4.06 18.79 4.06C19.89 4.06 20.79 5.01 20.79 6.86ZM24.98 10.50L24.98 6.54C24.98 4.94 25.76 4.07 26.91 4.07C28 4.07 28.41 4.83 28.41 6.09L28.41 10.50L29.67 10.50L29.67 6.03C29.67 4.30 29.18 3.01 27.16 3.01C26.15 3.01 25.38 3.37 24.85 4.27L24.85 3.22L23.72 3.22L23.72 10.50ZM31.07 8.40C31.18 9.87 32.27 10.71 34.05 10.71C35.50 10.71 36.99 10.11 36.99 8.50C36.99 7.14 36.11 6.65 35.20 6.40L33.24 5.87C32.80 5.75 32.34 5.52 32.34 5.03C32.34 4.44 32.87 4.06 33.92 4.06C34.86 4.06 35.39 4.48 35.50 5.28L36.71 5.11C36.60 3.86 35.69 3.01 33.95 3.01C32.45 3.01 31.14 3.64 31.14 5.17C31.14 6.37 31.99 6.82 32.96 7.08L34.73 7.56C35.48 7.76 35.73 8.05 35.73 8.61C35.73 9.42 34.80 9.66 34.09 9.66C32.89 9.66 32.40 8.99 32.28 8.22L31.07 8.40ZM44.59 7.18C44.60 7.08 44.60 6.76 44.60 6.72C44.60 4.61 43.50 3.01 41.30 3.01C39.28 3.01 37.97 4.45 37.97 6.86C37.97 9.27 39.28 10.71 41.30 10.71C42.88 10.71 44.09 9.91 44.51 8.29L43.32 8.04C43.06 9.13 42.22 9.66 41.37 9.66C40.32 9.66 39.34 8.93 39.23 7.18ZM41.30 4.06C42.48 4.06 43.20 4.94 43.26 6.17L39.27 6.17C39.49 4.69 40.43 4.06 41.30 4.06Z"></path></g><!----><g data-v-423bf9ae="" id="7c88c121-4232-464e-9f20-0bcce6100af5" transform="matrix(Infinity,0,0,Infinity,0,0)" stroke="none" fill="white"></g><!----><g data-v-423bf9ae="" id="a89d9bc4-338d-4f35-a00e-efda97eaee4e" fill="white" transform="matrix(0.7504865911028967,0,0,0.7504865911028967,34.3342943017267,57.1556541986908)"><path d="M8.43 12.21C8.40 12.18 8.36 12.15 8.32 12.15C8.29 12.15 8.27 12.15 8.25 12.17C8.23 12.18 8.20 12.21 8.18 12.22C7.98 12.40 7.77 12.56 7.57 12.70C7.38 12.84 7.17 12.94 6.93 13.03C6.69 13.13 6.44 13.20 6.16 13.24C5.88 13.29 5.57 13.31 5.22 13.31C4.66 13.31 4.12 13.22 3.64 13.01C3.15 12.81 2.74 12.52 2.39 12.14C2.04 11.76 1.75 11.28 1.55 10.74C1.36 10.19 1.26 9.56 1.26 8.86C1.26 8.18 1.36 7.56 1.55 7.01C1.76 6.47 2.04 6.01 2.41 5.61C2.77 5.24 3.21 4.94 3.71 4.73C4.21 4.52 4.76 4.42 5.36 4.42C6.26 4.42 7.08 4.56 7.81 4.89C7.85 5.78 7.90 6.30 7.90 6.41C7.91 6.64 7.99 6.75 8.19 6.75L8.53 6.75L8.53 4.51C7.35 4.03 6.29 3.81 5.36 3.81C4.65 3.81 4.00 3.92 3.40 4.17C2.81 4.42 2.28 4.76 1.86 5.21C1.43 5.66 1.11 6.19 0.87 6.80C0.63 7.42 0.52 8.11 0.52 8.86C0.52 9.63 0.64 10.32 0.87 10.95C1.09 11.58 1.41 12.10 1.82 12.54C2.23 12.99 2.72 13.33 3.29 13.57C3.86 13.80 4.48 13.93 5.17 13.93C5.57 13.93 5.95 13.90 6.30 13.83C6.64 13.76 6.96 13.66 7.25 13.54C7.53 13.41 7.80 13.26 8.04 13.09C8.27 12.91 8.50 12.73 8.71 12.50ZM25.98 8.86C25.98 8.11 25.86 7.41 25.63 6.79C25.41 6.17 25.09 5.64 24.67 5.19C24.25 4.75 23.76 4.40 23.18 4.16C22.61 3.92 21.95 3.79 21.25 3.79C20.55 3.79 19.92 3.92 19.35 4.16C18.77 4.40 18.27 4.75 17.85 5.19C17.43 5.64 17.11 6.17 16.88 6.79C16.66 7.41 16.53 8.11 16.53 8.86C16.53 9.63 16.66 10.33 16.88 10.95C17.11 11.56 17.43 12.10 17.85 12.54C18.27 12.99 18.77 13.33 19.35 13.57C19.92 13.80 20.55 13.93 21.25 13.93C21.95 13.93 22.61 13.80 23.18 13.57C23.76 13.33 24.25 12.99 24.67 12.54C25.09 12.10 25.41 11.56 25.63 10.95C25.86 10.33 25.98 9.63 25.98 8.86ZM25.23 8.86C25.23 9.56 25.14 10.18 24.95 10.72C24.75 11.27 24.49 11.75 24.14 12.12C23.79 12.50 23.37 12.81 22.88 13.01C22.39 13.20 21.85 13.30 21.25 13.30C20.66 13.30 20.13 13.20 19.64 13.01C19.15 12.81 18.73 12.50 18.38 12.12C18.03 11.75 17.75 11.27 17.56 10.72C17.36 10.18 17.28 9.56 17.28 8.86C17.28 8.18 17.36 7.55 17.56 7.00C17.75 6.45 18.03 5.98 18.38 5.60C18.73 5.22 19.15 4.91 19.64 4.72C20.13 4.52 20.66 4.41 21.25 4.41C21.85 4.41 22.39 4.52 22.88 4.72C23.37 4.91 23.79 5.22 24.14 5.60C24.49 5.98 24.75 6.45 24.95 7.00C25.14 7.55 25.23 8.18 25.23 8.86ZM42.81 3.92L42.18 3.92L40.96 3.92L40.96 4.19C40.96 4.34 41.06 4.42 41.24 4.44L41.38 4.44C41.45 4.44 41.57 4.45 41.71 4.45C41.85 4.45 42.01 4.47 42.18 4.47L42.18 12.22C42.18 12.35 42.18 12.49 42.20 12.63L35.78 4.05C35.74 3.99 35.71 3.95 35.67 3.93C35.63 3.92 35.59 3.91 35.52 3.91L35.17 3.91L33.98 3.91L33.98 4.19C33.98 4.34 34.08 4.42 34.26 4.44L34.40 4.44C34.47 4.44 34.57 4.45 34.71 4.45C34.85 4.45 35 4.47 35.17 4.47L35.17 13.26C35 13.26 34.85 13.27 34.71 13.27C34.57 13.27 34.47 13.29 34.40 13.29L34.26 13.29C34.08 13.30 33.98 13.38 33.98 13.54L33.98 13.82L35.17 13.82L35.78 13.82L37.00 13.82L37.00 13.54C37.00 13.38 36.90 13.30 36.72 13.29L36.58 13.29C36.51 13.29 36.39 13.27 36.25 13.27C36.11 13.27 35.95 13.26 35.78 13.26L35.78 5.49C35.78 5.36 35.78 5.22 35.77 5.08L42.21 13.68C42.28 13.78 42.35 13.82 42.46 13.82L42.81 13.82L42.81 4.47C42.98 4.47 43.12 4.45 43.26 4.45C43.40 4.45 43.51 4.44 43.58 4.44L43.71 4.44C43.89 4.42 43.99 4.34 43.99 4.19L43.99 3.92ZM61.03 6.80C60.80 6.19 60.48 5.68 60.06 5.25C59.64 4.82 59.15 4.48 58.58 4.26C58.00 4.03 57.34 3.92 56.64 3.92L53.21 3.92L52.02 3.92L52.02 4.19C52.02 4.34 52.12 4.42 52.30 4.44L52.44 4.44C52.51 4.44 52.61 4.45 52.75 4.45C52.89 4.45 53.05 4.47 53.21 4.47L53.21 13.26C53.05 13.26 52.89 13.27 52.75 13.27C52.61 13.27 52.51 13.29 52.44 13.29L52.30 13.29C52.12 13.30 52.02 13.38 52.02 13.54L52.02 13.82L53.21 13.82L56.64 13.82C57.34 13.82 58.00 13.71 58.58 13.48C59.15 13.26 59.64 12.92 60.06 12.49C60.48 12.05 60.80 11.54 61.03 10.92C61.25 10.30 61.38 9.63 61.38 8.86C61.38 8.11 61.25 7.42 61.03 6.80ZM60.34 10.72C60.14 11.27 59.89 11.72 59.54 12.10C59.19 12.47 58.77 12.75 58.28 12.95C57.79 13.15 57.25 13.24 56.64 13.24L53.93 13.24L53.93 4.49L56.64 4.49C57.25 4.49 57.79 4.59 58.28 4.79C58.77 4.98 59.19 5.26 59.54 5.64C59.89 6.02 60.14 6.47 60.34 7.01C60.54 7.56 60.63 8.18 60.63 8.86C60.63 9.56 60.54 10.18 60.34 10.72ZM70.85 3.92L69.66 3.92L69.66 4.19C69.66 4.34 69.76 4.42 69.94 4.44L70.08 4.44C70.15 4.44 70.25 4.45 70.39 4.45C70.53 4.45 70.69 4.47 70.85 4.47L70.85 13.26C70.69 13.26 70.53 13.27 70.39 13.27C70.25 13.27 70.15 13.29 70.08 13.29L69.94 13.29C69.76 13.30 69.68 13.38 69.68 13.54L69.68 13.82L70.85 13.82L76.79 13.82L76.79 13.22L76.79 11.76L76.44 11.76C76.24 11.76 76.16 11.89 76.15 12.11C76.15 12.14 76.13 12.19 76.13 12.29C76.13 12.39 76.13 12.53 76.12 12.74C76.10 12.95 76.09 13.09 76.09 13.22L71.57 13.22L71.57 9.09L75.52 9.09L75.52 8.51L71.57 8.51L71.57 4.51L76.09 4.51C76.12 5.12 76.15 5.50 76.15 5.63C76.16 5.85 76.24 5.96 76.44 5.96L76.79 5.96L76.79 4.51L76.79 3.92ZM94.21 3.92L93.58 3.92L92.36 3.92L92.36 4.19C92.36 4.34 92.46 4.42 92.64 4.44L92.78 4.44C92.85 4.44 92.96 4.45 93.10 4.45C93.24 4.45 93.41 4.47 93.58 4.47L93.58 12.22C93.58 12.35 93.58 12.49 93.59 12.63L87.18 4.05C87.14 3.99 87.11 3.95 87.07 3.93C87.02 3.92 86.98 3.91 86.91 3.91L86.56 3.91L85.37 3.91L85.37 4.19C85.37 4.34 85.47 4.42 85.65 4.44L85.79 4.44C85.86 4.44 85.96 4.45 86.10 4.45C86.24 4.45 86.39 4.47 86.56 4.47L86.56 13.26C86.39 13.26 86.24 13.27 86.10 13.27C85.96 13.27 85.86 13.29 85.79 13.29L85.65 13.29C85.47 13.30 85.37 13.38 85.37 13.54L85.37 13.82L86.56 13.82L87.18 13.82L88.40 13.82L88.40 13.54C88.40 13.38 88.30 13.30 88.12 13.29L87.98 13.29C87.91 13.29 87.78 13.27 87.64 13.27C87.50 13.27 87.35 13.26 87.18 13.26L87.18 5.49C87.18 5.36 87.18 5.22 87.16 5.08L93.60 13.68C93.67 13.78 93.74 13.82 93.86 13.82L94.21 13.82L94.21 4.47C94.37 4.47 94.51 4.45 94.65 4.45C94.79 4.45 94.91 4.44 94.98 4.44L95.10 4.44C95.28 4.42 95.38 4.34 95.38 4.19L95.38 3.92ZM109.14 9.91C109.00 9.65 108.81 9.39 108.57 9.21C108.33 9.03 108.08 8.88 107.79 8.75C107.49 8.62 107.17 8.51 106.86 8.41C106.55 8.32 106.25 8.20 105.95 8.11C105.66 7.99 105.39 7.87 105.15 7.71C104.92 7.56 104.73 7.38 104.59 7.15C104.45 6.93 104.37 6.65 104.37 6.31C104.37 6.06 104.43 5.82 104.52 5.59C104.62 5.35 104.76 5.15 104.94 4.97C105.13 4.79 105.35 4.65 105.63 4.55C105.91 4.45 106.22 4.40 106.58 4.40C107.25 4.40 107.87 4.51 108.43 4.75C108.47 5.54 108.50 5.99 108.50 6.06C108.51 6.29 108.60 6.41 108.79 6.41L109.13 6.41L109.13 4.38C108.25 4.00 107.41 3.81 106.58 3.81C106.12 3.81 105.71 3.88 105.35 4.02C104.99 4.16 104.69 4.34 104.45 4.58C104.22 4.82 104.02 5.08 103.89 5.39C103.77 5.70 103.71 6.02 103.71 6.36C103.71 6.78 103.78 7.14 103.92 7.42C104.06 7.70 104.26 7.92 104.50 8.12C104.73 8.32 104.99 8.46 105.28 8.58C105.57 8.71 105.90 8.82 106.20 8.92C106.51 9.02 106.81 9.11 107.11 9.21C107.41 9.31 107.67 9.45 107.91 9.60C108.15 9.76 108.33 9.94 108.47 10.16C108.61 10.39 108.68 10.68 108.68 11.03C108.68 11.35 108.63 11.66 108.51 11.94C108.40 12.22 108.25 12.46 108.04 12.67C107.83 12.88 107.56 13.05 107.25 13.16C106.95 13.29 106.60 13.33 106.20 13.33C105.42 13.33 104.76 13.20 104.23 12.95C104.22 12.75 104.22 12.54 104.20 12.32C104.19 12.10 104.19 11.91 104.17 11.76C104.16 11.61 104.16 11.52 104.16 11.51C104.15 11.28 104.05 11.17 103.85 11.17L103.52 11.17L103.52 13.02L103.52 13.20L103.52 13.38C104.37 13.75 105.25 13.93 106.18 13.93C106.68 13.93 107.13 13.85 107.52 13.69C107.91 13.54 108.25 13.31 108.51 13.05C108.78 12.78 109.00 12.46 109.14 12.10C109.28 11.73 109.35 11.34 109.35 10.92C109.35 10.51 109.28 10.18 109.14 9.91ZM118.80 3.92L117.61 3.92L117.61 4.19C117.61 4.34 117.71 4.42 117.89 4.44L118.03 4.44C118.10 4.44 118.20 4.45 118.34 4.45C118.48 4.45 118.64 4.47 118.80 4.47L118.80 13.26C118.64 13.26 118.48 13.27 118.34 13.27C118.20 13.27 118.10 13.29 118.03 13.29L117.89 13.29C117.71 13.30 117.63 13.38 117.63 13.54L117.63 13.82L118.80 13.82L124.74 13.82L124.74 13.22L124.74 11.76L124.39 11.76C124.19 11.76 124.11 11.89 124.10 12.11C124.10 12.14 124.08 12.19 124.08 12.29C124.08 12.39 124.08 12.53 124.07 12.74C124.05 12.95 124.04 13.09 124.04 13.22L119.52 13.22L119.52 9.09L123.47 9.09L123.47 8.51L119.52 8.51L119.52 4.51L124.04 4.51C124.07 5.12 124.10 5.50 124.10 5.63C124.11 5.85 124.19 5.96 124.39 5.96L124.74 5.96L124.74 4.51L124.74 3.92ZM151.83 3.92L151.76 3.92L151.20 3.92L151.09 3.92L149.69 3.92L149.69 4.19C149.69 4.34 149.79 4.42 149.97 4.44L150.08 4.44C150.14 4.44 150.21 4.45 150.32 4.45C150.43 4.45 150.56 4.47 150.70 4.47L148.11 8.64C148.04 8.75 147.98 8.85 147.94 8.95C147.90 9.04 147.85 9.16 147.81 9.25C147.77 9.16 147.73 9.04 147.69 8.95C147.64 8.85 147.59 8.75 147.52 8.64L144.91 4.47C145.05 4.47 145.18 4.45 145.29 4.45C145.40 4.45 145.49 4.44 145.54 4.44L145.64 4.44C145.82 4.42 145.92 4.34 145.92 4.19L145.92 3.92L144.52 3.92L144.41 3.92L143.85 3.92L143.78 3.92L143.33 3.92L143.33 4.19C143.33 4.34 143.43 4.42 143.61 4.44C143.85 4.45 144.03 4.47 144.13 4.47L147.45 9.73L147.45 13.26C147.28 13.26 147.13 13.27 146.99 13.27C146.85 13.27 146.75 13.29 146.68 13.29L146.55 13.29C146.37 13.30 146.27 13.38 146.27 13.54L146.27 13.82L147.45 13.82L148.16 13.82L149.34 13.82L149.34 13.54C149.34 13.38 149.25 13.30 149.07 13.29L148.93 13.29C148.86 13.29 148.76 13.27 148.62 13.27C148.48 13.27 148.33 13.26 148.16 13.26L148.16 9.73L151.48 4.47C151.59 4.47 151.76 4.45 152.00 4.44C152.18 4.42 152.28 4.34 152.28 4.19L152.28 3.92ZM169.02 8.86C169.02 8.11 168.90 7.41 168.67 6.79C168.45 6.17 168.13 5.64 167.71 5.19C167.29 4.75 166.80 4.40 166.22 4.16C165.65 3.92 164.99 3.79 164.29 3.79C163.59 3.79 162.96 3.92 162.39 4.16C161.81 4.40 161.31 4.75 160.89 5.19C160.47 5.64 160.15 6.17 159.92 6.79C159.70 7.41 159.57 8.11 159.57 8.86C159.57 9.63 159.70 10.33 159.92 10.95C160.15 11.56 160.47 12.10 160.89 12.54C161.31 12.99 161.81 13.33 162.39 13.57C162.96 13.80 163.59 13.93 164.29 13.93C164.99 13.93 165.65 13.80 166.22 13.57C166.80 13.33 167.29 12.99 167.71 12.54C168.13 12.10 168.45 11.56 168.67 10.95C168.90 10.33 169.02 9.63 169.02 8.86ZM168.27 8.86C168.27 9.56 168.18 10.18 167.99 10.72C167.79 11.27 167.52 11.75 167.17 12.12C166.82 12.50 166.40 12.81 165.91 13.01C165.42 13.20 164.89 13.30 164.29 13.30C163.70 13.30 163.17 13.20 162.68 13.01C162.19 12.81 161.77 12.50 161.42 12.12C161.07 11.75 160.79 11.27 160.59 10.72C160.40 10.18 160.31 9.56 160.31 8.86C160.31 8.18 160.40 7.55 160.59 7.00C160.79 6.45 161.07 5.98 161.42 5.60C161.77 5.22 162.19 4.91 162.68 4.72C163.17 4.52 163.70 4.41 164.29 4.41C164.89 4.41 165.42 4.52 165.91 4.72C166.40 4.91 166.82 5.22 167.17 5.60C167.52 5.98 167.79 6.45 167.99 7.00C168.18 7.55 168.27 8.18 168.27 8.86ZM185.26 3.92L184.55 3.92L183.19 3.92L183.19 4.19C183.19 4.34 183.29 4.42 183.47 4.44L183.64 4.44C183.74 4.44 183.88 4.45 184.04 4.45C184.21 4.45 184.38 4.47 184.55 4.47L184.55 10.04C184.55 10.50 184.48 10.92 184.34 11.33C184.20 11.73 184.00 12.08 183.74 12.38C183.47 12.67 183.16 12.89 182.78 13.06C182.41 13.23 181.99 13.31 181.51 13.31C181.03 13.31 180.60 13.23 180.22 13.06C179.84 12.89 179.52 12.66 179.27 12.36C179.00 12.07 178.82 11.72 178.68 11.33C178.54 10.93 178.47 10.50 178.47 10.04L178.47 4.47C178.64 4.47 178.81 4.45 178.98 4.45C179.14 4.45 179.28 4.44 179.38 4.44L179.55 4.44C179.73 4.42 179.83 4.34 179.83 4.19L179.83 3.92L178.47 3.92L177.76 3.92L176.58 3.92L176.58 4.19C176.58 4.34 176.67 4.42 176.85 4.44L176.99 4.44C177.06 4.44 177.16 4.45 177.30 4.45C177.44 4.45 177.59 4.47 177.76 4.47L177.76 10.04C177.76 10.58 177.84 11.09 178.01 11.56C178.18 12.04 178.43 12.46 178.75 12.81C179.07 13.16 179.48 13.44 179.94 13.64C180.40 13.83 180.94 13.93 181.51 13.93C182.08 13.93 182.60 13.83 183.06 13.64C183.53 13.44 183.93 13.16 184.25 12.81C184.58 12.46 184.83 12.04 185.00 11.56C185.16 11.09 185.26 10.58 185.26 10.04L185.26 4.47C185.43 4.47 185.57 4.45 185.71 4.45C185.85 4.45 185.96 4.44 186.03 4.44L186.16 4.44C186.34 4.42 186.44 4.34 186.44 4.19L186.44 3.92ZM202.45 13.29L202.36 13.29L202.17 13.29C202.09 13.29 202.01 13.27 201.92 13.27L198.95 9.53C198.87 9.42 198.76 9.32 198.65 9.25C199.08 9.21 199.47 9.11 199.82 8.96C200.17 8.81 200.45 8.61 200.70 8.37C200.94 8.13 201.14 7.85 201.26 7.55C201.39 7.24 201.46 6.89 201.46 6.51C201.46 5.66 201.18 5.03 200.62 4.58C200.06 4.14 199.21 3.92 198.06 3.92L195.65 3.92L194.47 3.92L194.47 4.19C194.47 4.34 194.56 4.42 194.74 4.44L194.88 4.44C194.95 4.44 195.05 4.45 195.19 4.45C195.33 4.45 195.48 4.47 195.65 4.47L195.65 13.26C195.48 13.26 195.33 13.27 195.19 13.27C195.05 13.27 194.95 13.29 194.88 13.29L194.74 13.29C194.56 13.30 194.46 13.38 194.46 13.54L194.46 13.82L195.65 13.82L196.36 13.82L197.54 13.82L197.54 13.54C197.54 13.38 197.44 13.30 197.26 13.29L197.12 13.29C197.05 13.29 196.95 13.27 196.81 13.27C196.67 13.27 196.53 13.26 196.36 13.26L196.36 9.34L197.54 9.34C197.74 9.34 197.88 9.35 197.96 9.39C198.04 9.44 198.13 9.52 198.21 9.62L201.39 13.64C201.45 13.71 201.49 13.75 201.54 13.78C201.60 13.80 201.67 13.82 201.74 13.82L201.81 13.82L202.36 13.82L202.72 13.82L202.72 13.54C202.72 13.38 202.64 13.30 202.45 13.29ZM197.96 8.81L196.36 8.81L196.36 4.48L198.06 4.48C198.94 4.48 199.61 4.66 200.07 5.00C200.54 5.33 200.76 5.87 200.76 6.57C200.76 6.92 200.70 7.21 200.58 7.49C200.45 7.77 200.26 7.99 200.02 8.19C199.78 8.39 199.49 8.55 199.14 8.65C198.79 8.75 198.39 8.81 197.96 8.81ZM227.67 11.97C227.47 11.97 227.39 12.08 227.37 12.31C227.37 12.32 227.37 12.38 227.36 12.43C227.35 12.49 227.35 12.59 227.33 12.71C227.32 12.84 227.30 13.01 227.29 13.20L223.20 13.20L223.20 4.47C223.37 4.47 223.51 4.45 223.65 4.45C223.79 4.45 223.90 4.44 223.97 4.44L224.10 4.44C224.28 4.42 224.38 4.34 224.38 4.19L224.38 3.92L223.20 3.92L222.49 3.92L221.30 3.92L221.30 4.19C221.30 4.34 221.40 4.42 221.58 4.44L221.72 4.44C221.79 4.44 221.89 4.45 222.03 4.45C222.17 4.45 222.32 4.47 222.49 4.47L222.49 13.26C222.32 13.26 222.17 13.27 222.03 13.27C221.89 13.27 221.79 13.29 221.72 13.29L221.58 13.29C221.40 13.30 221.30 13.38 221.30 13.54L221.30 13.82L222.49 13.82L227.77 13.82L227.89 13.82L228.02 13.82L228.02 13.55L228.02 12.99L228.02 11.97L227.74 11.97ZM239.26 4.44C239.44 4.42 239.53 4.34 239.53 4.19L239.53 3.91L238.35 3.91L237.64 3.91L236.45 3.91L236.45 4.19C236.45 4.34 236.54 4.42 236.73 4.44L236.87 4.44C236.94 4.44 237.03 4.45 237.17 4.45C237.31 4.45 237.47 4.47 237.64 4.47L237.64 13.26C237.47 13.26 237.31 13.27 237.17 13.27C237.03 13.27 236.94 13.29 236.87 13.29L236.73 13.29C236.54 13.30 236.45 13.38 236.45 13.54L236.45 13.82L237.64 13.82L238.35 13.82L239.53 13.82L239.53 13.54C239.53 13.38 239.44 13.30 239.26 13.29L239.12 13.29C239.05 13.29 238.95 13.27 238.81 13.27C238.67 13.27 238.52 13.26 238.35 13.26L238.35 4.47C238.52 4.47 238.67 4.45 238.81 4.45C238.95 4.45 239.05 4.44 239.12 4.44ZM256.70 3.92L256.07 3.92L254.86 3.92L254.86 4.19C254.86 4.34 254.95 4.42 255.14 4.44L255.28 4.44C255.35 4.44 255.46 4.45 255.60 4.45C255.74 4.45 255.91 4.47 256.07 4.47L256.07 12.22C256.07 12.35 256.07 12.49 256.09 12.63L249.68 4.05C249.63 3.99 249.61 3.95 249.56 3.93C249.52 3.92 249.48 3.91 249.41 3.91L249.06 3.91L247.87 3.91L247.87 4.19C247.87 4.34 247.97 4.42 248.15 4.44L248.29 4.44C248.36 4.44 248.46 4.45 248.60 4.45C248.74 4.45 248.89 4.47 249.06 4.47L249.06 13.26C248.89 13.26 248.74 13.27 248.60 13.27C248.46 13.27 248.36 13.29 248.29 13.29L248.15 13.29C247.97 13.30 247.87 13.38 247.87 13.54L247.87 13.82L249.06 13.82L249.68 13.82L250.89 13.82L250.89 13.54C250.89 13.38 250.80 13.30 250.61 13.29L250.47 13.29C250.40 13.29 250.28 13.27 250.14 13.27C250.00 13.27 249.84 13.26 249.68 13.26L249.68 5.49C249.68 5.36 249.68 5.22 249.66 5.08L256.10 13.68C256.17 13.78 256.24 13.82 256.35 13.82L256.70 13.82L256.70 4.47C256.87 4.47 257.01 4.45 257.15 4.45C257.29 4.45 257.40 4.44 257.47 4.44L257.60 4.44C257.78 4.42 257.88 4.34 257.88 4.19L257.88 3.92ZM274.41 13.29L274.33 13.29L274.15 13.29C274.06 13.29 273.97 13.27 273.87 13.27L269.84 9.06C269.75 8.96 269.68 8.89 269.60 8.83C269.51 8.78 269.43 8.74 269.33 8.71C269.42 8.68 269.49 8.64 269.56 8.58C269.63 8.53 269.71 8.46 269.79 8.36L273.59 4.45L273.85 4.45C273.94 4.45 273.99 4.44 274.04 4.44L274.12 4.44C274.30 4.42 274.40 4.34 274.40 4.19L274.40 3.91L273.42 3.91L273.29 3.91L271.49 3.91L271.49 4.19C271.49 4.34 271.59 4.42 271.77 4.44L271.94 4.44C272.03 4.44 272.16 4.45 272.33 4.45L272.78 4.45L269.11 8.22C269.05 8.27 269.00 8.33 268.95 8.36C268.91 8.39 268.86 8.40 268.80 8.43C268.74 8.44 268.70 8.47 268.63 8.47C268.56 8.48 268.48 8.48 268.39 8.48L267.81 8.48L267.81 4.45C267.97 4.45 268.13 4.44 268.27 4.44C268.41 4.44 268.51 4.42 268.58 4.42L268.72 4.42C268.90 4.41 268.98 4.33 268.98 4.17L268.98 3.91L267.81 3.91L267.09 3.91L265.92 3.91L265.92 4.17C265.92 4.33 266.01 4.41 266.20 4.42L266.32 4.42C266.39 4.42 266.50 4.44 266.64 4.44C266.78 4.44 266.92 4.45 267.09 4.45L267.09 13.26C266.92 13.26 266.78 13.27 266.64 13.27C266.50 13.27 266.39 13.29 266.32 13.29L266.20 13.29C266.01 13.30 265.92 13.38 265.92 13.54L265.92 13.82L267.09 13.82L267.81 13.82L268.98 13.82L268.98 13.54C268.98 13.38 268.90 13.30 268.72 13.29L268.58 13.29C268.51 13.29 268.41 13.27 268.27 13.27C268.13 13.27 267.97 13.26 267.81 13.26L267.81 9.04L268.45 9.04C268.56 9.04 268.66 9.04 268.73 9.06C268.80 9.07 268.86 9.09 268.91 9.11C268.97 9.14 269.02 9.17 269.07 9.21C269.11 9.25 269.15 9.28 269.21 9.34L273.06 13.27C272.92 13.27 272.75 13.29 272.58 13.29L272.17 13.29L271.99 13.29C271.81 13.30 271.71 13.38 271.71 13.54L271.71 13.82L273.59 13.82L273.64 13.82L273.81 13.82L274.40 13.82L274.69 13.82L274.69 13.54C274.69 13.38 274.60 13.30 274.41 13.29Z"></path></g></svg>