<svg data-v-423bf9ae="" xmlns="http://www.w3.org/2000/svg" viewBox="0 0 257.20114845001973 60" class="font"><!----><!----><!----><g data-v-423bf9ae="" id="e3685bdc-ea2b-430c-883a-f31de2c66afa" fill="black" transform="matrix(5.830903811703725,0,0,5.830903811703725,-2.8571462312229983,-2.448980234671076)"><path d="M1.75 6.86C1.75 4.87 2.72 4.06 3.82 4.06C4.68 4.06 5.36 4.55 5.63 5.71L6.85 5.43C6.45 3.91 5.39 3.01 3.82 3.01C1.81 3.01 0.49 4.45 0.49 6.86C0.49 9.27 1.81 10.71 3.82 10.71C5.39 10.71 6.45 9.83 6.85 8.30L5.63 8.02C5.36 9.17 4.68 9.66 3.82 9.66C2.72 9.66 1.75 8.85 1.75 6.86ZM9.51 10.50L9.51 6.54C9.51 4.94 10.29 4.07 11.44 4.07C12.53 4.07 12.94 4.83 12.94 6.09L12.94 10.50L14.20 10.50L14.20 6.03C14.20 4.30 13.71 3.01 11.69 3.01C10.68 3.01 9.91 3.37 9.38 4.27L9.38 3.22L8.25 3.22L8.25 10.50ZM20.64 0.42L20.64 3.99C20.22 3.40 19.59 3.01 18.72 3.01C16.70 3.01 15.60 4.59 15.60 6.86C15.60 9.13 16.70 10.71 18.72 10.71C19.68 10.71 20.36 10.21 20.78 9.51L20.78 10.50L21.90 10.50L21.90 0.42ZM20.79 6.86C20.79 8.71 19.75 9.66 18.79 9.66C17.68 9.66 16.86 8.71 16.86 6.86C16.86 5.01 17.68 4.06 18.79 4.06C19.89 4.06 20.79 5.01 20.79 6.86ZM24.98 10.50L24.98 6.54C24.98 4.94 25.76 4.07 26.91 4.07C28 4.07 28.41 4.83 28.41 6.09L28.41 10.50L29.67 10.50L29.67 6.03C29.67 4.30 29.18 3.01 27.16 3.01C26.15 3.01 25.38 3.37 24.85 4.27L24.85 3.22L23.72 3.22L23.72 10.50ZM31.07 8.40C31.18 9.87 32.27 10.71 34.05 10.71C35.50 10.71 36.99 10.11 36.99 8.50C36.99 7.14 36.11 6.65 35.20 6.40L33.24 5.87C32.80 5.75 32.34 5.52 32.34 5.03C32.34 4.44 32.87 4.06 33.92 4.06C34.86 4.06 35.39 4.48 35.50 5.28L36.71 5.11C36.60 3.86 35.69 3.01 33.95 3.01C32.45 3.01 31.14 3.64 31.14 5.17C31.14 6.37 31.99 6.82 32.96 7.08L34.73 7.56C35.48 7.76 35.73 8.05 35.73 8.61C35.73 9.42 34.80 9.66 34.09 9.66C32.89 9.66 32.40 8.99 32.28 8.22L31.07 8.40ZM44.59 7.18C44.60 7.08 44.60 6.76 44.60 6.72C44.60 4.61 43.50 3.01 41.30 3.01C39.28 3.01 37.97 4.45 37.97 6.86C37.97 9.27 39.28 10.71 41.30 10.71C42.88 10.71 44.09 9.91 44.51 8.29L43.32 8.04C43.06 9.13 42.22 9.66 41.37 9.66C40.32 9.66 39.34 8.93 39.23 7.18ZM41.30 4.06C42.48 4.06 43.20 4.94 43.26 6.17L39.27 6.17C39.49 4.69 40.43 4.06 41.30 4.06Z"></path></g><!----><!----></svg>